<?xml version="1.0" standalone="no"?>
<!DOCTYPE svg PUBLIC "-//W3C//DTD SVG 20010904//EN"
 "http://www.w3.org/TR/2001/REC-SVG-20010904/DTD/svg10.dtd">
<svg version="1.0" xmlns="http://www.w3.org/2000/svg"
 width="32.000000pt" height="32.000000pt" viewBox="0 0 32.000000 32.000000"
 preserveAspectRatio="xMidYMid meet">

<g transform="translate(0.000000,32.000000) scale(0.100000,-0.100000)"
fill="#000000" stroke="none">
<path d="M20 298 c-17 -19 -20 -35 -20 -125 0 -98 1 -103 21 -103 107 0 229
122 229 229 0 20 -4 21 -105 21 -94 0 -106 -2 -125 -22z"/>
<path d="M297 186 c-24 -57 -95 -129 -160 -160 l-52 -25 96 -1 c88 0 97 2 118
24 20 21 22 32 19 114 l-3 92 -18 -44z"/>
</g>
</svg>
