<svg width="139px" height="42px" viewBox="0 0 139 42" version="1.1" xmlns="http://www.w3.org/2000/svg" xmlns:xlink="http://www.w3.org/1999/xlink">
                <g id="Page-1" stroke="none" stroke-width="1" fill="none" fill-rule="evenodd">
                    <g id="logo-wecity" transform="translate(0.384766, 0.037964)" fill="#344055">
                        <path d="M126.826234,23.7268361 L121.721234,8.2570561 L108.373234,8.2896961 L108.373234,0 L100.906234,4.2949761 L100.906234,8.2570561 L97.753134,8.2570561 L97.753134,13.6160361 L100.906234,13.6160361 L100.906234,25.0779361 C101.004234,29.2815361 101.957234,31.5335361 106.865234,31.8859361 L112.472234,31.8859361 L112.472234,26.3312361 L109.868234,26.3312361 C108.817234,26.2790361 108.314234,25.8286361 108.314234,24.7777361 L108.314234,13.6160361 L115.807234,13.6160361 L122.766234,31.7880361 C121.663234,35.0452361 120.866234,35.3911361 118.458234,35.3911361 L115.403234,35.3911361 L115.403234,41.2461361 L119.260234,41.2461361 C125.018234,41.2461361 127.524234,39.0464361 129.371234,34.1379361 L138.333234,8.2570561 L131.578234,8.2570561 L126.826234,23.7268361 Z M95.187834,31.3443361 L87.583534,31.3443361 L87.583534,12.0821361 L95.187834,7.7153961 L95.187834,31.3443361 Z M26.030934,22.0753361 L29.686234,8.3548761 L36.494234,8.3548761 L28.981334,31.9903361 L22.427834,31.9903361 L18.217734,17.1210361 L14.014134,31.9903361 L7.408504,31.9903361 L0,8.3548761 L7.708764,8.3548761 L11.364034,22.0753361 L15.417534,8.3548761 L22.075434,8.3548761 L26.030934,22.0753361 Z M48.308734,8.3548761 C41.200534,8.3548761 36.494334,13.1589361 36.494334,20.3129361 C36.494334,27.4668361 41.011234,31.9837361 48.452334,31.9837361 C54.790334,31.9837361 58.151934,29.3924361 59.692334,25.2606361 L53.785134,23.4852361 C53.112834,25.3585361 51.670334,26.8010361 48.739534,26.8010361 C45.808734,26.8010361 43.837534,25.2149361 43.504634,22.1405361 L59.7837417,22.1405361 L59.7837417,20.3651361 C59.790334,12.8717361 55.560634,8.3548761 48.308734,8.3548761 Z M43.504634,17.9174361 C43.837534,15.0323361 45.665134,13.4005361 48.210834,13.4005361 C50.998034,13.4005361 52.440534,14.8887361 52.629834,17.9174361 L43.504634,17.9174361 Z M69.555134,20.7635361 C69.555134,24.6537361 71.134734,27.0036361 74.065534,27.0036361 C76.800434,27.0036361 78.001534,25.4697361 78.477934,22.9175361 L85.194634,24.5036361 C83.797734,29.3469361 80.442734,32.4213361 74.059034,32.4213361 C66.572134,32.4213361 62.159634,27.8130361 62.159634,20.5676361 C62.159634,13.5638361 66.911534,8.8119661 74.156934,8.8119661 C80.253434,8.8119661 83.517034,11.6905361 85.005334,16.2988361 L78.288734,18.0742361 C77.759934,15.9137361 76.754734,14.2361361 74.209134,14.2361361 C71.284834,14.2361361 69.555134,16.6382361 69.555134,20.4763361 L69.555134,20.7635361 Z M95.116234,3.7336261 C95.116234,5.7956561 93.444634,7.4672561 91.382534,7.4672561 C89.320534,7.4672561 87.648934,5.7956561 87.648934,3.7336261 C87.648934,1.6716061 89.320534,0 91.382534,0 C93.444634,0 95.116234,1.6716061 95.116234,3.7336261 Z" id="Shape"></path>
                    </g>
                </g>
            </svg>

