<?xml version="1.0" encoding="utf-8"?>
<!-- Generator: Adobe Illustrator 28.0.0, SVG Export Plug-In . SVG Version: 6.00 Build 0)  -->
<svg version="1.1" id="Layer_1" xmlns="http://www.w3.org/2000/svg" xmlns:xlink="http://www.w3.org/1999/xlink" x="0px" y="0px"
	 viewBox="0 0 512 512" style="enable-background:new 0 0 512 512;" xml:space="preserve">
<style type="text/css">
	.st0{fill:#E9004C;}
	.st1{fill:#00263D;}
</style>
<path class="st0" d="M511.49,228.8h-48.65c-5.41,0-10.24,3.98-10.81,9.39c-0.85,7.4-6.54,11.66-13.37,11.95
	c-7.4,0-13.37-5.97-13.37-13.37s5.97-13.37,13.37-13.37c4.84,0,9.1,2.56,11.38,6.54c0.28,0.28,0.57,0.28,0.85,0
	c1.42-1.71,3.13-3.13,5.12-3.98c0.28,0,0.28-0.57,0.28-0.85c-3.7-5.69-10.24-9.39-17.64-9.39c-11.66,0-21.05,9.39-21.34,21.34
	c0,11.66,9.39,21.34,21.34,21.34c10.81-0.28,19.91-7.4,21.05-18.78c0.28-1.42,1.42-2.56,3.13-2.56h41.53v5.69
	c0,3.13-0.85,7.68-4.84,7.68s-4.84-4.55-4.84-7.68v-1.71c0-0.28-0.28-0.57-0.57-0.57h-6.83c-0.28,0-0.57,0.28-0.57,0.57v1.42
	c0,3.13-0.85,7.68-4.84,7.68s-4.84-4.55-4.84-7.68v-1.42c0-0.28-0.28-0.57-0.57-0.57h-6.83c-0.28,0-0.57,0.28-0.57,0.57v1.42
	c0,7.68,4.27,15.36,12.52,15.36c3.41,0,6.54-1.42,8.53-3.98c2.28,2.56,5.12,3.98,8.53,3.98c8.53,0,12.52-7.97,12.52-15.36v-13.09
	C512.34,229.08,512.06,228.8,511.49,228.8"/>
<path class="st1" d="M144.79,235.91c-13.09,0-21.91,9.39-21.91,23.33c0,13.94,9.39,23.33,22.76,23.33c6.54,0,12.52-1.42,17.92-5.97
	c0.28-0.28,0.28-0.57,0-0.57l-4.27-5.97c-0.28-0.28-0.57-0.28-0.85,0c-3.7,2.84-7.97,4.27-12.23,4.27
	c-8.53,0-13.66-6.26-13.66-14.22c0-7.68,3.7-15.08,12.23-15.08c6.26,0,10.24,3.98,11.09,10.81h-18.49c-0.28,0-0.57,0.28-0.57,0.28
	c-0.28,1.99-0.28,4.27,0,6.54c0,0.28,0.28,0.28,0.57,0.28h27.59c0.28,0,0.57-0.28,0.57-0.57v-3.13
	C165.56,245.3,157.02,235.91,144.79,235.91 M97,235.91c-6.26,0-10.81,2.56-13.94,6.54v-5.12c0-0.28-0.28-0.57-0.57-0.57h-8.53
	c-0.28,0-0.57,0.28-0.57,0.57v62.87c0,0.28,0.28,0.57,0.57,0.57h8.53c0.28,0,0.57-0.28,0.57-0.57v-43.53
	c0-6.83,6.26-11.66,12.8-11.66c8.25,0,13.37,6.54,13.37,14.22c0,7.68-5.12,14.22-13.37,14.22c-2.84,0-5.69-0.85-7.68-2.28
	c-0.28-0.28-0.85,0-0.85,0.28v7.97c0,0.28,0.28,0.57,0.57,0.85c2.56,1.42,5.41,2.28,9.1,2.28c12.23,0,22.19-9.67,22.19-23.33
	C119.19,245.58,109.23,235.91,97,235.91 M194.57,235.91c-4.55,0-9.96,1.42-13.37,6.54v-5.12c0-0.28-0.28-0.57-0.57-0.57h-8.53
	c-0.28,0-0.57,0.28-0.57,0.57v43.24c0,0.28,0.28,0.57,0.57,0.57h8.53c0.28,0,0.57-0.28,0.57-0.57v-23.9
	c0-7.68,5.12-11.66,11.38-11.66c6.54,0,10.24,4.27,10.24,11.66v24.18c0,0.28,0.28,0.57,0.57,0.57h8.53c0.28,0,0.57-0.28,0.57-0.57
	v-27.31C212.5,243.02,205.1,235.91,194.57,235.91 M36.69,215.43c-0.28,0-0.57,0.28-0.57,0.57v9.1c0,0.28,0.28,0.57,0.57,0.57
	c11.66,1.14,20.2,10.53,20.2,23.33c0,13.94-9.67,23.61-22.76,23.61S11.37,262.94,11.37,249c0-12.8,8.25-22.19,20.2-23.33
	c0.28,0,0.57-0.28,0.57-0.57V216c-0.57-0.28-0.85-0.57-1.14-0.57c-18.49,1.42-31.01,15.08-31.01,33.28
	c0,19.34,13.94,33.57,33.85,33.57s33.85-14.22,33.85-33.57C67.69,230.51,54.89,216.85,36.69,215.43 M409.36,280.29l-17.92-22.47
	l17.64-19.91c0.28-0.28,0-0.85-0.28-0.85h-10.53c-0.28,0-0.57,0-0.85,0.28l-14.22,16.5h-3.98v-36.7c0-0.28-0.28-0.57-0.57-0.57
	h-8.53c-0.28,0-0.57,0.28-0.57,0.57v63.44c0,0.28,0.28,0.57,0.57,0.57h8.53c0.28,0,0.57-0.28,0.57-0.57v-18.21h3.98l14.51,18.21
	c0.28,0.28,0.57,0.28,0.85,0.28h10.53C409.64,281.14,409.64,280.57,409.36,280.29 M344.5,235.91c-4.55,0-9.96,1.42-13.37,6.54v-5.12
	c0-0.28-0.28-0.57-0.57-0.57h-8.53c-0.28,0-0.57,0.28-0.57,0.57v43.24c0,0.28,0.28,0.57,0.57,0.57h8.53c0.28,0,0.57-0.28,0.57-0.57
	v-23.9c0-7.68,5.12-11.66,11.38-11.66c6.54,0,10.24,4.27,10.24,11.66v24.18c0,0.28,0.28,0.57,0.57,0.57h8.53
	c0.28,0,0.57-0.28,0.57-0.57v-27.31C362.42,243.02,355.02,235.91,344.5,235.91 M313.77,237.05h-8.53c-0.28,0-0.57,0.28-0.57,0.57
	v4.84c-3.13-3.98-7.4-6.54-13.94-6.54c-12.23,0-22.19,9.67-22.19,23.33c0,13.66,9.67,23.33,22.19,23.33c3.7,0,6.54-0.85,9.1-2.28
	c0.28-0.28,0.57-0.57,0.57-0.85v-7.97c0-0.28-0.57-0.57-0.85-0.28c-1.99,1.42-4.84,2.28-7.68,2.28c-8.25,0-13.37-6.54-13.37-14.22
	c0-7.68,5.12-14.22,13.37-14.22c6.54,0,12.8,4.84,12.8,11.66v23.9c0,0.28,0.28,0.57,0.57,0.57h8.53c0.28,0,0.57-0.28,0.57-0.57
	v-43.24C314.34,237.05,314.06,237.05,313.77,237.05 M243.22,235.91c-3.7,0-6.54,0.85-9.1,2.28c-0.28,0.28-0.57,0.57-0.57,0.85v7.68
	c0,0.28,0.57,0.57,0.85,0.28c1.99-1.42,4.84-2.28,7.68-2.28c8.25,0,13.37,6.54,13.37,14.22c0,7.68-5.12,14.22-13.37,14.22
	c-6.54,0-12.8-4.84-12.8-11.66v-44.38c0-0.28-0.28-0.57-0.57-0.57h-8.53c-0.28,0-0.57,0.28-0.57,0.57v63.44
	c0,0.28,0.28,0.57,0.57,0.57h8.53c0.28,0,0.57-0.28,0.57-0.57v-4.84c3.13,3.98,7.4,6.54,13.94,6.54c12.23,0,22.19-9.67,22.19-23.33
	C265.13,245.58,255.45,235.91,243.22,235.91"/>
</svg>
